<mxfile host="65bd71144e">
    <diagram id="00-uPUe9AZms_T46HA7c" name="Exposição Gulbenkian">
        <mxGraphModel dx="1993" dy="1764" grid="1" gridSize="10" guides="1" tooltips="1" connect="1" arrows="1" fold="1" page="1" pageScale="1" pageWidth="850" pageHeight="1100" math="0" shadow="0">
            <root>
                <mxCell id="0"/>
                <mxCell id="1" parent="0"/>
                <mxCell id="2" value="IVM" style="rounded=0;whiteSpace=wrap;html=1;" parent="1" vertex="1">
                    <mxGeometry x="123" y="41.099999999999994" width="120" height="60" as="geometry"/>
                </mxCell>
                <mxCell id="3" value="&lt;u&gt;número de série&lt;/u&gt;" style="ellipse;whiteSpace=wrap;html=1;" parent="1" vertex="1">
                    <mxGeometry x="43" y="-40" width="80" height="60" as="geometry"/>
                </mxCell>
                <mxCell id="7" value="" style="endArrow=none;html=1;exitX=0.5;exitY=1;exitDx=0;exitDy=0;entryX=0.25;entryY=0;entryDx=0;entryDy=0;" parent="1" source="3" target="2" edge="1">
                    <mxGeometry width="50" height="50" relative="1" as="geometry">
                        <mxPoint x="395" y="30" as="sourcePoint"/>
                        <mxPoint x="445" y="-20" as="targetPoint"/>
                    </mxGeometry>
                </mxCell>
                <mxCell id="87" style="edgeStyle=none;html=1;exitX=0.5;exitY=0;exitDx=0;exitDy=0;entryX=0.5;entryY=1;entryDx=0;entryDy=0;" parent="1" source="n_H6tgW4zbTbW25FnDyU-9" target="86" edge="1">
                    <mxGeometry relative="1" as="geometry">
                        <Array as="points"/>
                    </mxGeometry>
                </mxCell>
                <mxCell id="n_H6tgW4zbTbW25FnDyU-9" value="Categoria" style="rounded=0;whiteSpace=wrap;html=1;" parent="1" vertex="1">
                    <mxGeometry x="138" y="540" width="100" height="50" as="geometry"/>
                </mxCell>
                <mxCell id="n_H6tgW4zbTbW25FnDyU-10" value="" style="triangle;whiteSpace=wrap;html=1;direction=north;" parent="1" vertex="1">
                    <mxGeometry x="148" y="620.73" width="80" height="70" as="geometry"/>
                </mxCell>
                <mxCell id="n_H6tgW4zbTbW25FnDyU-11" value="" style="shape=link;html=1;exitX=0.5;exitY=1;exitDx=0;exitDy=0;entryX=1;entryY=0.5;entryDx=0;entryDy=0;" parent="1" source="n_H6tgW4zbTbW25FnDyU-9" target="n_H6tgW4zbTbW25FnDyU-10" edge="1">
                    <mxGeometry width="100" relative="1" as="geometry">
                        <mxPoint x="328" y="570" as="sourcePoint"/>
                        <mxPoint x="428" y="570" as="targetPoint"/>
                    </mxGeometry>
                </mxCell>
                <mxCell id="n_H6tgW4zbTbW25FnDyU-12" value="" style="shape=cross;whiteSpace=wrap;html=1;direction=south;rotation=45;size=0.33611171104649123;" parent="1" vertex="1">
                    <mxGeometry x="168.83999999999997" y="650" width="38.32" height="40.73" as="geometry"/>
                </mxCell>
                <mxCell id="n_H6tgW4zbTbW25FnDyU-13" value="Super" style="rounded=0;whiteSpace=wrap;html=1;" parent="1" vertex="1">
                    <mxGeometry x="20" y="750" width="60" height="30" as="geometry"/>
                </mxCell>
                <mxCell id="n_H6tgW4zbTbW25FnDyU-14" value="" style="endArrow=none;html=1;exitX=0.5;exitY=0;exitDx=0;exitDy=0;entryX=0;entryY=0.5;entryDx=0;entryDy=0;" parent="1" source="n_H6tgW4zbTbW25FnDyU-13" target="n_H6tgW4zbTbW25FnDyU-10" edge="1">
                    <mxGeometry width="50" height="50" relative="1" as="geometry">
                        <mxPoint x="280" y="720" as="sourcePoint"/>
                        <mxPoint x="190" y="700" as="targetPoint"/>
                        <Array as="points">
                            <mxPoint x="50" y="730"/>
                            <mxPoint x="80" y="730"/>
                            <mxPoint x="120" y="730"/>
                            <mxPoint x="188" y="730"/>
                        </Array>
                    </mxGeometry>
                </mxCell>
                <mxCell id="83" style="edgeStyle=none;html=1;exitX=0;exitY=0.5;exitDx=0;exitDy=0;entryX=1;entryY=0.5;entryDx=0;entryDy=0;" parent="1" source="n_H6tgW4zbTbW25FnDyU-9" target="82" edge="1">
                    <mxGeometry relative="1" as="geometry">
                        <Array as="points">
                            <mxPoint x="120" y="565"/>
                            <mxPoint x="120" y="610"/>
                            <mxPoint x="120" y="635"/>
                        </Array>
                    </mxGeometry>
                </mxCell>
                <mxCell id="n_H6tgW4zbTbW25FnDyU-15" value="Simples" style="rounded=0;whiteSpace=wrap;html=1;" parent="1" vertex="1">
                    <mxGeometry x="300" y="745" width="70" height="35" as="geometry"/>
                </mxCell>
                <mxCell id="n_H6tgW4zbTbW25FnDyU-16" value="" style="endArrow=none;html=1;exitX=0.5;exitY=0;exitDx=0;exitDy=0;entryX=0;entryY=0.5;entryDx=0;entryDy=0;" parent="1" source="n_H6tgW4zbTbW25FnDyU-15" target="n_H6tgW4zbTbW25FnDyU-10" edge="1">
                    <mxGeometry width="50" height="50" relative="1" as="geometry">
                        <mxPoint x="280" y="720" as="sourcePoint"/>
                        <mxPoint x="330" y="670" as="targetPoint"/>
                        <Array as="points">
                            <mxPoint x="335" y="730"/>
                            <mxPoint x="260" y="730"/>
                            <mxPoint x="188" y="730"/>
                        </Array>
                    </mxGeometry>
                </mxCell>
                <mxCell id="n_H6tgW4zbTbW25FnDyU-17" value="&lt;u&gt;nome&lt;/u&gt;" style="ellipse;whiteSpace=wrap;html=1;" parent="1" vertex="1">
                    <mxGeometry x="70" y="460" width="60" height="50" as="geometry"/>
                </mxCell>
                <mxCell id="n_H6tgW4zbTbW25FnDyU-18" value="" style="endArrow=none;html=1;exitX=0;exitY=0;exitDx=0;exitDy=0;entryX=0.5;entryY=1;entryDx=0;entryDy=0;" parent="1" source="n_H6tgW4zbTbW25FnDyU-9" target="n_H6tgW4zbTbW25FnDyU-17" edge="1">
                    <mxGeometry width="50" height="50" relative="1" as="geometry">
                        <mxPoint x="280" y="520" as="sourcePoint"/>
                        <mxPoint x="330" y="470" as="targetPoint"/>
                    </mxGeometry>
                </mxCell>
                <mxCell id="fh6w0yjH1MEBk0rbtKuh-10" value="largura" style="ellipse;whiteSpace=wrap;html=1;" parent="1" vertex="1">
                    <mxGeometry x="391.25" y="445" width="60" height="40" as="geometry"/>
                </mxCell>
                <mxCell id="fh6w0yjH1MEBk0rbtKuh-11" value="altura" style="ellipse;whiteSpace=wrap;html=1;" parent="1" vertex="1">
                    <mxGeometry x="559" y="460" width="60" height="40" as="geometry"/>
                </mxCell>
                <mxCell id="fh6w0yjH1MEBk0rbtKuh-12" value="" style="endArrow=none;html=1;entryX=1;entryY=0;entryDx=0;entryDy=0;exitX=0;exitY=0;exitDx=29.375;exitDy=65;exitPerimeter=0;" parent="1" source="pVvuMbzZNNWRI8RjfoYQ-9" target="fh6w0yjH1MEBk0rbtKuh-10" edge="1">
                    <mxGeometry width="50" height="50" relative="1" as="geometry">
                        <mxPoint x="480" y="114.99999999999989" as="sourcePoint"/>
                        <mxPoint x="288.9571755514828" y="94.25481656189868" as="targetPoint"/>
                    </mxGeometry>
                </mxCell>
                <mxCell id="fh6w0yjH1MEBk0rbtKuh-13" value="" style="endArrow=none;html=1;entryX=0.5;entryY=0;entryDx=0;entryDy=0;exitX=0;exitY=0;exitDx=88.125;exitDy=65;exitPerimeter=0;" parent="1" source="pVvuMbzZNNWRI8RjfoYQ-9" target="fh6w0yjH1MEBk0rbtKuh-11" edge="1">
                    <mxGeometry width="50" height="50" relative="1" as="geometry">
                        <mxPoint x="580" y="420" as="sourcePoint"/>
                        <mxPoint x="470" y="80" as="targetPoint"/>
                    </mxGeometry>
                </mxCell>
                <mxCell id="n_H6tgW4zbTbW25FnDyU-20" value="" style="triangle;whiteSpace=wrap;html=1;direction=north;rotation=-180;" parent="1" vertex="1">
                    <mxGeometry x="480" y="227" width="80" height="57" as="geometry"/>
                </mxCell>
                <mxCell id="n_H6tgW4zbTbW25FnDyU-21" value="" style="shape=cross;whiteSpace=wrap;html=1;direction=south;rotation=45;size=0.33611171104649123;" parent="1" vertex="1">
                    <mxGeometry x="500.41999999999996" y="226.27" width="39.16" height="40.73" as="geometry"/>
                </mxCell>
                <mxCell id="pVvuMbzZNNWRI8RjfoYQ-9" value="&lt;font style=&quot;font-size: 17px&quot;&gt;Prateleira&lt;/font&gt;" style="verticalLabelPosition=middle;verticalAlign=middle;html=1;shape=mxgraph.basic.frame;dx=10;fontFamily=Helvetica;labelPosition=center;align=center;" parent="1" vertex="1">
                    <mxGeometry x="462.5" y="350" width="117.5" height="65" as="geometry"/>
                </mxCell>
                <mxCell id="n_H6tgW4zbTbW25FnDyU-23" value="Fria" style="rounded=0;whiteSpace=wrap;html=1;" parent="1" vertex="1">
                    <mxGeometry x="580" y="160" width="70" height="30" as="geometry"/>
                </mxCell>
                <mxCell id="n_H6tgW4zbTbW25FnDyU-25" value="Quente" style="rounded=0;whiteSpace=wrap;html=1;" parent="1" vertex="1">
                    <mxGeometry x="382.5" y="160" width="80" height="30" as="geometry"/>
                </mxCell>
                <mxCell id="fh6w0yjH1MEBk0rbtKuh-14" value="" style="triangle;whiteSpace=wrap;html=1;direction=north;rotation=-180;" parent="1" vertex="1">
                    <mxGeometry x="580" y="90" width="69" height="45" as="geometry"/>
                </mxCell>
                <mxCell id="fh6w0yjH1MEBk0rbtKuh-17" value="Produto" style="rounded=0;whiteSpace=wrap;html=1;" parent="1" vertex="1">
                    <mxGeometry x="619" y="620.73" width="100" height="50" as="geometry"/>
                </mxCell>
                <mxCell id="n_H6tgW4zbTbW25FnDyU-29" value="Negativo" style="rounded=0;whiteSpace=wrap;html=1;" parent="1" vertex="1">
                    <mxGeometry x="534" y="23" width="65" height="30" as="geometry"/>
                </mxCell>
                <mxCell id="n_H6tgW4zbTbW25FnDyU-31" value="Positivo" style="rounded=0;whiteSpace=wrap;html=1;" parent="1" vertex="1">
                    <mxGeometry x="636" y="21" width="70" height="30" as="geometry"/>
                </mxCell>
                <mxCell id="11" value="Temperatura Ambiente" style="rounded=0;whiteSpace=wrap;html=1;" parent="1" vertex="1">
                    <mxGeometry x="480" y="160" width="80" height="30" as="geometry"/>
                </mxCell>
                <mxCell id="12" value="&lt;u&gt;número&lt;/u&gt;" style="ellipse;whiteSpace=wrap;html=1;direction=south;" parent="1" vertex="1">
                    <mxGeometry x="485" y="490" width="70" height="60" as="geometry"/>
                </mxCell>
                <mxCell id="13" value="" style="endArrow=none;html=1;entryX=0;entryY=0.5;entryDx=0;entryDy=0;exitX=0.5;exitY=1;exitDx=0;exitDy=0;exitPerimeter=0;" parent="1" source="pVvuMbzZNNWRI8RjfoYQ-9" target="12" edge="1">
                    <mxGeometry width="50" height="50" relative="1" as="geometry">
                        <mxPoint x="537" y="450" as="sourcePoint"/>
                        <mxPoint x="529" y="470" as="targetPoint"/>
                    </mxGeometry>
                </mxCell>
                <mxCell id="21" value="&lt;u&gt;código EAN&lt;/u&gt;" style="ellipse;whiteSpace=wrap;html=1;" parent="1" vertex="1">
                    <mxGeometry x="519" y="690" width="80" height="50" as="geometry"/>
                </mxCell>
                <mxCell id="22" value="embalagem" style="ellipse;whiteSpace=wrap;html=1;" parent="1" vertex="1">
                    <mxGeometry x="580" y="750" width="80" height="60" as="geometry"/>
                </mxCell>
                <mxCell id="23" value="designação textual" style="ellipse;whiteSpace=wrap;html=1;" parent="1" vertex="1">
                    <mxGeometry x="670" y="750" width="80" height="60" as="geometry"/>
                </mxCell>
                <mxCell id="24" value="marca/nome" style="ellipse;whiteSpace=wrap;html=1;" parent="1" vertex="1">
                    <mxGeometry x="750" y="690" width="80" height="59.27" as="geometry"/>
                </mxCell>
                <mxCell id="25" value="" style="endArrow=none;html=1;entryX=0;entryY=1;entryDx=0;entryDy=0;exitX=1;exitY=0;exitDx=0;exitDy=0;" parent="1" source="21" target="fh6w0yjH1MEBk0rbtKuh-17" edge="1">
                    <mxGeometry width="50" height="50" relative="1" as="geometry">
                        <mxPoint x="470" y="710" as="sourcePoint"/>
                        <mxPoint x="520" y="660" as="targetPoint"/>
                    </mxGeometry>
                </mxCell>
                <mxCell id="26" value="" style="endArrow=none;html=1;entryX=0.25;entryY=1;entryDx=0;entryDy=0;exitX=0.5;exitY=0;exitDx=0;exitDy=0;" parent="1" source="22" target="fh6w0yjH1MEBk0rbtKuh-17" edge="1">
                    <mxGeometry width="50" height="50" relative="1" as="geometry">
                        <mxPoint x="470" y="710" as="sourcePoint"/>
                        <mxPoint x="520" y="660" as="targetPoint"/>
                    </mxGeometry>
                </mxCell>
                <mxCell id="27" value="" style="endArrow=none;html=1;entryX=0.75;entryY=1;entryDx=0;entryDy=0;exitX=0.5;exitY=0;exitDx=0;exitDy=0;" parent="1" source="23" target="fh6w0yjH1MEBk0rbtKuh-17" edge="1">
                    <mxGeometry width="50" height="50" relative="1" as="geometry">
                        <mxPoint x="470" y="710" as="sourcePoint"/>
                        <mxPoint x="520" y="660" as="targetPoint"/>
                    </mxGeometry>
                </mxCell>
                <mxCell id="28" value="" style="endArrow=none;html=1;entryX=1;entryY=1;entryDx=0;entryDy=0;exitX=0.5;exitY=0;exitDx=0;exitDy=0;" parent="1" source="24" target="fh6w0yjH1MEBk0rbtKuh-17" edge="1">
                    <mxGeometry width="50" height="50" relative="1" as="geometry">
                        <mxPoint x="470" y="710" as="sourcePoint"/>
                        <mxPoint x="520" y="660" as="targetPoint"/>
                    </mxGeometry>
                </mxCell>
                <mxCell id="29" value="Planograma" style="rhombus;whiteSpace=wrap;html=1;" parent="1" vertex="1">
                    <mxGeometry x="637" y="480" width="83" height="60" as="geometry"/>
                </mxCell>
                <mxCell id="31" value="Retalhista" style="rounded=0;whiteSpace=wrap;html=1;" parent="1" vertex="1">
                    <mxGeometry x="128" y="284" width="120" height="60" as="geometry"/>
                </mxCell>
                <mxCell id="32" value="&lt;u&gt;TIN&lt;/u&gt;" style="ellipse;whiteSpace=wrap;html=1;" parent="1" vertex="1">
                    <mxGeometry x="43" y="227" width="60" height="40" as="geometry"/>
                </mxCell>
                <mxCell id="33" value="nome" style="ellipse;whiteSpace=wrap;html=1;" parent="1" vertex="1">
                    <mxGeometry x="42" y="350" width="60" height="40" as="geometry"/>
                </mxCell>
                <mxCell id="34" value="" style="endArrow=none;html=1;entryX=0.5;entryY=1;entryDx=0;entryDy=0;exitX=0;exitY=0.25;exitDx=0;exitDy=0;" parent="1" source="31" target="32" edge="1">
                    <mxGeometry width="50" height="50" relative="1" as="geometry">
                        <mxPoint x="470" y="260" as="sourcePoint"/>
                        <mxPoint x="520" y="210" as="targetPoint"/>
                    </mxGeometry>
                </mxCell>
                <mxCell id="35" value="" style="endArrow=none;html=1;entryX=0;entryY=0.75;entryDx=0;entryDy=0;exitX=0.5;exitY=0;exitDx=0;exitDy=0;" parent="1" source="33" target="31" edge="1">
                    <mxGeometry width="50" height="50" relative="1" as="geometry">
                        <mxPoint x="470" y="260" as="sourcePoint"/>
                        <mxPoint x="520" y="210" as="targetPoint"/>
                    </mxGeometry>
                </mxCell>
                <mxCell id="39" value="pertence&lt;br&gt;&amp;lt;" style="rhombus;whiteSpace=wrap;html=1;" parent="1" vertex="1">
                    <mxGeometry x="380" y="600" width="71.25" height="90.73" as="geometry"/>
                </mxCell>
                <mxCell id="43" value="" style="shape=flexArrow;endArrow=classic;html=1;exitX=0;exitY=0.5;exitDx=0;exitDy=0;entryX=1;entryY=0.5;entryDx=0;entryDy=0;" parent="1" source="fh6w0yjH1MEBk0rbtKuh-17" target="39" edge="1">
                    <mxGeometry width="50" height="50" relative="1" as="geometry">
                        <mxPoint x="400" y="520" as="sourcePoint"/>
                        <mxPoint x="450" y="470" as="targetPoint"/>
                        <Array as="points">
                            <mxPoint x="540" y="645"/>
                        </Array>
                    </mxGeometry>
                </mxCell>
                <mxCell id="44" value="" style="endArrow=none;html=1;exitX=1;exitY=0.5;exitDx=0;exitDy=0;entryX=0;entryY=0.5;entryDx=0;entryDy=0;" parent="1" source="n_H6tgW4zbTbW25FnDyU-9" target="39" edge="1">
                    <mxGeometry width="50" height="50" relative="1" as="geometry">
                        <mxPoint x="400" y="520" as="sourcePoint"/>
                        <mxPoint x="450" y="470" as="targetPoint"/>
                        <Array as="points">
                            <mxPoint x="290" y="565"/>
                            <mxPoint x="290" y="645"/>
                        </Array>
                    </mxGeometry>
                </mxCell>
                <mxCell id="51" value="" style="endArrow=none;html=1;entryX=1;entryY=0.5;entryDx=0;entryDy=0;entryPerimeter=0;exitX=0.5;exitY=0;exitDx=0;exitDy=0;" parent="1" source="29" target="pVvuMbzZNNWRI8RjfoYQ-9" edge="1">
                    <mxGeometry width="50" height="50" relative="1" as="geometry">
                        <mxPoint x="400" y="420" as="sourcePoint"/>
                        <mxPoint x="450" y="370" as="targetPoint"/>
                        <Array as="points">
                            <mxPoint x="679" y="383"/>
                        </Array>
                    </mxGeometry>
                </mxCell>
                <mxCell id="52" value="" style="shape=link;html=1;exitX=1;exitY=0.5;exitDx=0;exitDy=0;entryX=0.5;entryY=0;entryDx=0;entryDy=0;entryPerimeter=0;" parent="1" source="n_H6tgW4zbTbW25FnDyU-20" target="pVvuMbzZNNWRI8RjfoYQ-9" edge="1">
                    <mxGeometry width="100" relative="1" as="geometry">
                        <mxPoint x="380" y="400" as="sourcePoint"/>
                        <mxPoint x="480" y="400" as="targetPoint"/>
                    </mxGeometry>
                </mxCell>
                <mxCell id="59" value="" style="shape=link;html=1;entryX=0.5;entryY=0;entryDx=0;entryDy=0;exitX=1;exitY=0.5;exitDx=0;exitDy=0;" parent="1" source="fh6w0yjH1MEBk0rbtKuh-14" target="n_H6tgW4zbTbW25FnDyU-23" edge="1">
                    <mxGeometry width="100" relative="1" as="geometry">
                        <mxPoint x="380" y="400" as="sourcePoint"/>
                        <mxPoint x="480" y="400" as="targetPoint"/>
                    </mxGeometry>
                </mxCell>
                <mxCell id="61" value="" style="endArrow=none;html=1;entryX=0.5;entryY=1;entryDx=0;entryDy=0;exitX=0;exitY=0.75;exitDx=0;exitDy=0;" parent="1" source="fh6w0yjH1MEBk0rbtKuh-14" target="n_H6tgW4zbTbW25FnDyU-29" edge="1">
                    <mxGeometry width="50" height="50" relative="1" as="geometry">
                        <mxPoint x="400" y="420" as="sourcePoint"/>
                        <mxPoint x="450" y="370" as="targetPoint"/>
                    </mxGeometry>
                </mxCell>
                <mxCell id="62" value="" style="endArrow=none;html=1;entryX=0.5;entryY=1;entryDx=0;entryDy=0;exitX=0;exitY=0.25;exitDx=0;exitDy=0;" parent="1" source="fh6w0yjH1MEBk0rbtKuh-14" target="n_H6tgW4zbTbW25FnDyU-31" edge="1">
                    <mxGeometry width="50" height="50" relative="1" as="geometry">
                        <mxPoint x="690" y="110" as="sourcePoint"/>
                        <mxPoint x="450" y="370" as="targetPoint"/>
                    </mxGeometry>
                </mxCell>
                <mxCell id="64" value="" style="endArrow=none;html=1;entryX=0.5;entryY=1;entryDx=0;entryDy=0;exitX=0;exitY=0.25;exitDx=0;exitDy=0;" parent="1" source="n_H6tgW4zbTbW25FnDyU-20" target="n_H6tgW4zbTbW25FnDyU-23" edge="1">
                    <mxGeometry width="50" height="50" relative="1" as="geometry">
                        <mxPoint x="560" y="420" as="sourcePoint"/>
                        <mxPoint x="610" y="370" as="targetPoint"/>
                    </mxGeometry>
                </mxCell>
                <mxCell id="67" value="" style="endArrow=none;html=1;entryX=0.5;entryY=1;entryDx=0;entryDy=0;exitX=0;exitY=0.5;exitDx=0;exitDy=0;" parent="1" source="n_H6tgW4zbTbW25FnDyU-20" target="11" edge="1">
                    <mxGeometry width="50" height="50" relative="1" as="geometry">
                        <mxPoint x="560" y="420" as="sourcePoint"/>
                        <mxPoint x="610" y="370" as="targetPoint"/>
                    </mxGeometry>
                </mxCell>
                <mxCell id="68" value="" style="endArrow=none;html=1;entryX=0.5;entryY=1;entryDx=0;entryDy=0;exitX=0;exitY=0.75;exitDx=0;exitDy=0;" parent="1" source="n_H6tgW4zbTbW25FnDyU-20" target="n_H6tgW4zbTbW25FnDyU-25" edge="1">
                    <mxGeometry width="50" height="50" relative="1" as="geometry">
                        <mxPoint x="560" y="420" as="sourcePoint"/>
                        <mxPoint x="610" y="370" as="targetPoint"/>
                    </mxGeometry>
                </mxCell>
                <mxCell id="71" value="" style="shape=cross;whiteSpace=wrap;html=1;direction=south;rotation=45;size=0.33611171104649123;" parent="1" vertex="1">
                    <mxGeometry x="599.31" y="91.96000000000001" width="30.47" height="29.14" as="geometry"/>
                </mxCell>
                <mxCell id="76" value="nº máx&lt;br&gt;unidades" style="ellipse;whiteSpace=wrap;html=1;" parent="1" vertex="1">
                    <mxGeometry x="730" y="440" width="70" height="50" as="geometry"/>
                </mxCell>
                <mxCell id="77" value="frentes visíveis" style="ellipse;whiteSpace=wrap;html=1;" parent="1" vertex="1">
                    <mxGeometry x="730" y="530" width="70" height="50" as="geometry"/>
                </mxCell>
                <mxCell id="78" value="" style="endArrow=none;html=1;entryX=0;entryY=0.5;entryDx=0;entryDy=0;exitX=1;exitY=0;exitDx=0;exitDy=0;" parent="1" target="76" edge="1" source="29">
                    <mxGeometry width="50" height="50" relative="1" as="geometry">
                        <mxPoint x="680" y="490" as="sourcePoint"/>
                        <mxPoint x="730" y="440" as="targetPoint"/>
                    </mxGeometry>
                </mxCell>
                <mxCell id="79" value="" style="endArrow=none;html=1;entryX=0;entryY=0.5;entryDx=0;entryDy=0;exitX=1;exitY=1;exitDx=0;exitDy=0;" parent="1" source="29" target="77" edge="1">
                    <mxGeometry width="50" height="50" relative="1" as="geometry">
                        <mxPoint x="680" y="490" as="sourcePoint"/>
                        <mxPoint x="730" y="440" as="targetPoint"/>
                    </mxGeometry>
                </mxCell>
                <mxCell id="82" value="has &amp;gt;" style="rhombus;whiteSpace=wrap;html=1;" parent="1" vertex="1">
                    <mxGeometry x="42" y="610" width="48" height="50" as="geometry"/>
                </mxCell>
                <mxCell id="84" value="" style="shape=link;html=1;exitX=0;exitY=0.5;exitDx=0;exitDy=0;entryX=0;entryY=0.5;entryDx=0;entryDy=0;" parent="1" source="n_H6tgW4zbTbW25FnDyU-13" target="82" edge="1">
                    <mxGeometry width="100" relative="1" as="geometry">
                        <mxPoint x="260" y="680" as="sourcePoint"/>
                        <mxPoint x="360" y="680" as="targetPoint"/>
                        <Array as="points">
                            <mxPoint x="-40" y="765"/>
                            <mxPoint x="-40" y="700"/>
                            <mxPoint x="-40" y="635"/>
                        </Array>
                    </mxGeometry>
                </mxCell>
                <mxCell id="86" value="responsável&amp;nbsp;" style="rhombus;whiteSpace=wrap;html=1;" parent="1" vertex="1">
                    <mxGeometry x="143" y="390" width="90" height="90" as="geometry"/>
                </mxCell>
                <mxCell id="88" value="" style="endArrow=none;html=1;exitX=0.5;exitY=0;exitDx=0;exitDy=0;entryX=0.5;entryY=1;entryDx=0;entryDy=0;" parent="1" source="86" target="31" edge="1">
                    <mxGeometry width="50" height="50" relative="1" as="geometry">
                        <mxPoint x="280" y="400" as="sourcePoint"/>
                        <mxPoint x="330" y="350" as="targetPoint"/>
                    </mxGeometry>
                </mxCell>
                <mxCell id="89" value="repõe" style="rhombus;whiteSpace=wrap;html=1;" parent="1" vertex="1">
                    <mxGeometry x="152" y="162.5" width="62" height="53" as="geometry"/>
                </mxCell>
                <mxCell id="90" value="" style="endArrow=none;html=1;exitX=0.5;exitY=0;exitDx=0;exitDy=0;entryX=0.5;entryY=1;entryDx=0;entryDy=0;" parent="1" source="89" target="2" edge="1">
                    <mxGeometry width="50" height="50" relative="1" as="geometry">
                        <mxPoint x="300" y="200" as="sourcePoint"/>
                        <mxPoint x="350" y="150" as="targetPoint"/>
                    </mxGeometry>
                </mxCell>
                <mxCell id="91" value="" style="endArrow=none;html=1;entryX=0.5;entryY=1;entryDx=0;entryDy=0;" parent="1" target="89" edge="1">
                    <mxGeometry width="50" height="50" relative="1" as="geometry">
                        <mxPoint x="183" y="260" as="sourcePoint"/>
                        <mxPoint x="350" y="150" as="targetPoint"/>
                    </mxGeometry>
                </mxCell>
                <mxCell id="96" value="contém&lt;br&gt;" style="rhombus;whiteSpace=wrap;html=1;" parent="1" vertex="1">
                    <mxGeometry x="314" y="253" width="66" height="60" as="geometry"/>
                </mxCell>
                <mxCell id="97" value="" style="endArrow=none;html=1;exitX=1;exitY=0.5;exitDx=0;exitDy=0;entryX=0.5;entryY=0;entryDx=0;entryDy=0;" parent="1" source="2" target="96" edge="1">
                    <mxGeometry width="50" height="50" relative="1" as="geometry">
                        <mxPoint x="350" y="320" as="sourcePoint"/>
                        <mxPoint x="400" y="270" as="targetPoint"/>
                        <Array as="points">
                            <mxPoint x="347" y="71"/>
                            <mxPoint x="347" y="151"/>
                        </Array>
                    </mxGeometry>
                </mxCell>
                <mxCell id="98" value="" style="endArrow=none;html=1;exitX=0.5;exitY=1;exitDx=0;exitDy=0;entryX=0;entryY=0.5;entryDx=0;entryDy=0;entryPerimeter=0;" parent="1" source="96" target="pVvuMbzZNNWRI8RjfoYQ-9" edge="1">
                    <mxGeometry width="50" height="50" relative="1" as="geometry">
                        <mxPoint x="350" y="320" as="sourcePoint"/>
                        <mxPoint x="420" y="384" as="targetPoint"/>
                        <Array as="points">
                            <mxPoint x="350" y="382"/>
                        </Array>
                    </mxGeometry>
                </mxCell>
                <mxCell id="99" value="&amp;lt;" style="text;html=1;strokeColor=none;fillColor=none;align=center;verticalAlign=middle;whiteSpace=wrap;rounded=0;rotation=-90;" parent="1" vertex="1">
                    <mxGeometry x="331" y="284" width="30" height="20" as="geometry"/>
                </mxCell>
                <mxCell id="101" value="&amp;lt;" style="text;html=1;strokeColor=none;fillColor=none;align=center;verticalAlign=middle;whiteSpace=wrap;rounded=0;rotation=90;" parent="1" vertex="1">
                    <mxGeometry x="168.84" y="195.5" width="30" height="20" as="geometry"/>
                </mxCell>
                <mxCell id="102" value="&amp;lt;" style="text;html=1;strokeColor=none;fillColor=none;align=center;verticalAlign=middle;whiteSpace=wrap;rounded=0;rotation=-90;" parent="1" vertex="1">
                    <mxGeometry x="173" y="440" width="30" height="20" as="geometry"/>
                </mxCell>
                <mxCell id="103" value="" style="endArrow=none;dashed=1;html=1;dashPattern=1 3;strokeWidth=2;" parent="1" edge="1">
                    <mxGeometry width="50" height="50" relative="1" as="geometry">
                        <mxPoint x="20" y="480" as="sourcePoint"/>
                        <mxPoint x="20" y="480" as="targetPoint"/>
                        <Array as="points">
                            <mxPoint x="20" y="210"/>
                            <mxPoint x="80" y="210"/>
                            <mxPoint x="120" y="210"/>
                            <mxPoint x="120" y="260"/>
                            <mxPoint x="290" y="260"/>
                            <mxPoint x="290" y="710"/>
                            <mxPoint x="410" y="710"/>
                            <mxPoint x="410" y="820"/>
                            <mxPoint x="-70" y="820"/>
                            <mxPoint x="-70" y="480"/>
                        </Array>
                    </mxGeometry>
                </mxCell>
                <mxCell id="105" value="Dúvidas para os Labs&lt;br&gt;- Tds atributo morada são Keys?&amp;nbsp;" style="text;html=1;align=center;verticalAlign=middle;resizable=0;points=[];autosize=1;strokeColor=#6F0000;fillColor=#a20025;fontColor=#ffffff;" parent="1" vertex="1">
                    <mxGeometry x="-240" y="-25" width="190" height="30" as="geometry"/>
                </mxCell>
                <mxCell id="106" value="Ponto de Retalho" style="rounded=0;whiteSpace=wrap;html=1;" parent="1" vertex="1">
                    <mxGeometry x="150" y="-230" width="78" height="50" as="geometry"/>
                </mxCell>
                <mxCell id="107" value="&lt;u&gt;nome&lt;/u&gt;" style="ellipse;whiteSpace=wrap;html=1;" parent="1" vertex="1">
                    <mxGeometry x="102" y="-330" width="60" height="50" as="geometry"/>
                </mxCell>
                <mxCell id="108" value="morada" style="ellipse;whiteSpace=wrap;html=1;" parent="1" vertex="1">
                    <mxGeometry x="210" y="-325" width="70" height="40" as="geometry"/>
                </mxCell>
                <mxCell id="112" value="" style="endArrow=none;html=1;exitX=0.5;exitY=0;exitDx=0;exitDy=0;entryX=0.5;entryY=1;entryDx=0;entryDy=0;" parent="1" source="106" target="108" edge="1">
                    <mxGeometry width="50" height="50" relative="1" as="geometry">
                        <mxPoint x="370" y="-60" as="sourcePoint"/>
                        <mxPoint x="420" y="-110" as="targetPoint"/>
                    </mxGeometry>
                </mxCell>
                <mxCell id="113" value="" style="endArrow=none;html=1;exitX=0.5;exitY=0;exitDx=0;exitDy=0;entryX=0.5;entryY=1;entryDx=0;entryDy=0;" parent="1" source="106" target="107" edge="1">
                    <mxGeometry width="50" height="50" relative="1" as="geometry">
                        <mxPoint x="370" y="-60" as="sourcePoint"/>
                        <mxPoint x="420" y="-110" as="targetPoint"/>
                    </mxGeometry>
                </mxCell>
                <mxCell id="116" value="localizada ^" style="rhombus;whiteSpace=wrap;html=1;" parent="1" vertex="1">
                    <mxGeometry x="149" y="-130" width="80" height="80" as="geometry"/>
                </mxCell>
                <mxCell id="117" value="" style="endArrow=none;html=1;exitX=0.5;exitY=0;exitDx=0;exitDy=0;entryX=0.5;entryY=1;entryDx=0;entryDy=0;" parent="1" source="116" target="106" edge="1">
                    <mxGeometry width="50" height="50" relative="1" as="geometry">
                        <mxPoint x="370" y="-60" as="sourcePoint"/>
                        <mxPoint x="420" y="-110" as="targetPoint"/>
                    </mxGeometry>
                </mxCell>
                <mxCell id="118" value="" style="shape=flexArrow;endArrow=classic;html=1;entryX=0.5;entryY=1;entryDx=0;entryDy=0;exitX=0.56;exitY=0.003;exitDx=0;exitDy=0;exitPerimeter=0;" parent="1" source="2" target="116" edge="1">
                    <mxGeometry width="50" height="50" relative="1" as="geometry">
                        <mxPoint x="189" y="40" as="sourcePoint"/>
                        <mxPoint x="420" y="-110" as="targetPoint"/>
                    </mxGeometry>
                </mxCell>
                <mxCell id="120" value="Uma super categoria pode conter uma super categoria?" style="text;html=1;strokeColor=#6F0000;fillColor=#a20025;align=center;verticalAlign=middle;whiteSpace=wrap;rounded=0;fontColor=#ffffff;" parent="1" vertex="1">
                    <mxGeometry x="-210" y="650" width="130" height="60" as="geometry"/>
                </mxCell>
                <mxCell id="121" value="Perguntar sobre as agregações?" style="text;html=1;strokeColor=#3700CC;fillColor=#6a00ff;align=center;verticalAlign=middle;whiteSpace=wrap;rounded=0;fontColor=#ffffff;" parent="1" vertex="1">
                    <mxGeometry x="-245" y="195.5" width="200" height="103" as="geometry"/>
                </mxCell>
                <mxCell id="126" value="O ponto de retalho é uma entidade?" style="text;html=1;strokeColor=#6F0000;fillColor=#a20025;align=center;verticalAlign=middle;whiteSpace=wrap;rounded=0;fontColor=#ffffff;" vertex="1" parent="1">
                    <mxGeometry x="296.25" y="-285" width="155" height="30" as="geometry"/>
                </mxCell>
                <mxCell id="127" value="Planograma ou usar verbo conter?" style="text;html=1;strokeColor=#6F0000;fillColor=#a20025;align=center;verticalAlign=middle;whiteSpace=wrap;rounded=0;fontColor=#ffffff;" vertex="1" parent="1">
                    <mxGeometry x="693.5" y="350" width="140" height="67" as="geometry"/>
                </mxCell>
                <mxCell id="129" value="" style="endArrow=none;dashed=1;html=1;dashPattern=1 3;strokeWidth=2;" edge="1" parent="1">
                    <mxGeometry width="50" height="50" relative="1" as="geometry">
                        <mxPoint x="380" y="340" as="sourcePoint"/>
                        <mxPoint x="380" y="340" as="targetPoint"/>
                        <Array as="points">
                            <mxPoint x="920" y="340"/>
                            <mxPoint x="930" y="840"/>
                            <mxPoint x="500" y="840"/>
                            <mxPoint x="500" y="570"/>
                            <mxPoint x="380" y="570"/>
                        </Array>
                    </mxGeometry>
                </mxCell>
                <mxCell id="130" value="" style="endArrow=none;html=1;entryX=0.5;entryY=1;entryDx=0;entryDy=0;" edge="1" parent="1" target="29">
                    <mxGeometry width="50" height="50" relative="1" as="geometry">
                        <mxPoint x="679" y="620" as="sourcePoint"/>
                        <mxPoint x="450" y="450" as="targetPoint"/>
                    </mxGeometry>
                </mxCell>
                <mxCell id="132" value="" style="endArrow=none;dashed=1;html=1;" edge="1" parent="1">
                    <mxGeometry width="50" height="50" relative="1" as="geometry">
                        <mxPoint x="300" y="270" as="sourcePoint"/>
                        <mxPoint x="300" y="270" as="targetPoint"/>
                        <Array as="points">
                            <mxPoint x="-40" y="270"/>
                            <mxPoint x="-40" y="30"/>
                            <mxPoint x="180" y="30"/>
                            <mxPoint x="300" y="30"/>
                        </Array>
                    </mxGeometry>
                </mxCell>
                <mxCell id="134" value="Evento de reposição" style="rounded=0;whiteSpace=wrap;html=1;" vertex="1" parent="1">
                    <mxGeometry x="539.58" y="-150" width="110.42" height="70" as="geometry"/>
                </mxCell>
                <mxCell id="137" value="respeitando" style="rhombus;whiteSpace=wrap;html=1;" vertex="1" parent="1">
                    <mxGeometry x="710" y="80.25" width="80" height="79.75" as="geometry"/>
                </mxCell>
                <mxCell id="138" value="" style="endArrow=none;html=1;entryX=0.5;entryY=1;entryDx=0;entryDy=0;" edge="1" parent="1" target="137">
                    <mxGeometry width="50" height="50" relative="1" as="geometry">
                        <mxPoint x="750" y="340" as="sourcePoint"/>
                        <mxPoint x="450" y="240" as="targetPoint"/>
                    </mxGeometry>
                </mxCell>
                <mxCell id="139" value="de acordo com &amp;lt;" style="rhombus;whiteSpace=wrap;html=1;" vertex="1" parent="1">
                    <mxGeometry x="330" y="-90" width="80" height="65" as="geometry"/>
                </mxCell>
                <mxCell id="140" value="" style="endArrow=none;html=1;entryX=0;entryY=0.5;entryDx=0;entryDy=0;" edge="1" parent="1" target="139">
                    <mxGeometry width="50" height="50" relative="1" as="geometry">
                        <mxPoint x="260" y="30" as="sourcePoint"/>
                        <mxPoint x="450" y="140" as="targetPoint"/>
                        <Array as="points">
                            <mxPoint x="260" y="-57"/>
                        </Array>
                    </mxGeometry>
                </mxCell>
                <mxCell id="142" value="nº unidades substituidas" style="ellipse;whiteSpace=wrap;html=1;" vertex="1" parent="1">
                    <mxGeometry x="461.25" y="-255" width="120" height="60" as="geometry"/>
                </mxCell>
                <mxCell id="143" value="data" style="ellipse;whiteSpace=wrap;html=1;" vertex="1" parent="1">
                    <mxGeometry x="629.78" y="-260" width="90.22" height="60" as="geometry"/>
                </mxCell>
                <mxCell id="144" value="" style="endArrow=none;html=1;entryX=0.636;entryY=0.973;entryDx=0;entryDy=0;entryPerimeter=0;exitX=0.25;exitY=0;exitDx=0;exitDy=0;" edge="1" parent="1" source="134" target="142">
                    <mxGeometry width="50" height="50" relative="1" as="geometry">
                        <mxPoint x="400" y="-30" as="sourcePoint"/>
                        <mxPoint x="450" y="-80" as="targetPoint"/>
                    </mxGeometry>
                </mxCell>
                <mxCell id="145" value="" style="endArrow=none;html=1;entryX=0.5;entryY=1;entryDx=0;entryDy=0;exitX=0.75;exitY=0;exitDx=0;exitDy=0;" edge="1" parent="1" source="134" target="143">
                    <mxGeometry width="50" height="50" relative="1" as="geometry">
                        <mxPoint x="400" y="-30" as="sourcePoint"/>
                        <mxPoint x="450" y="-80" as="targetPoint"/>
                    </mxGeometry>
                </mxCell>
                <mxCell id="146" value="&amp;lt;" style="text;html=1;strokeColor=none;fillColor=none;align=center;verticalAlign=middle;whiteSpace=wrap;rounded=0;rotation=-90;" vertex="1" parent="1">
                    <mxGeometry x="735" y="120" width="30" height="20" as="geometry"/>
                </mxCell>
                <mxCell id="149" value="" style="shape=flexArrow;endArrow=classic;html=1;exitX=0.996;exitY=0.421;exitDx=0;exitDy=0;exitPerimeter=0;entryX=0.5;entryY=0;entryDx=0;entryDy=0;" edge="1" parent="1" source="134" target="137">
                    <mxGeometry width="50" height="50" relative="1" as="geometry">
                        <mxPoint x="470" y="70" as="sourcePoint"/>
                        <mxPoint x="520" y="20" as="targetPoint"/>
                        <Array as="points">
                            <mxPoint x="750" y="-121"/>
                        </Array>
                    </mxGeometry>
                </mxCell>
                <mxCell id="150" value="" style="shape=flexArrow;endArrow=classic;html=1;exitX=0;exitY=0.5;exitDx=0;exitDy=0;entryX=0.5;entryY=0;entryDx=0;entryDy=0;" edge="1" parent="1" source="134" target="139">
                    <mxGeometry width="50" height="50" relative="1" as="geometry">
                        <mxPoint x="470" y="70" as="sourcePoint"/>
                        <mxPoint x="520" y="20" as="targetPoint"/>
                        <Array as="points">
                            <mxPoint x="370" y="-115"/>
                        </Array>
                    </mxGeometry>
                </mxCell>
            </root>
        </mxGraphModel>
    </diagram>
</mxfile>